HIERARCHY
ROOT Hips
{
	OFFSET 0.00000 0.00000 0.00000
	CHANNELS 6 Xposition Yposition Zposition Zrotation Yrotation Xrotation 
	JOINT LHipJoint
	{
		OFFSET 0 0 0
		CHANNELS 3 Zrotation Yrotation Xrotation
		JOINT LeftHip
		{
			OFFSET 1.85742 -1.74412 1.01653
			CHANNELS 3 Zrotation Yrotation Xrotation
			JOINT LeftKnee
			{
				OFFSET 2.54803 -7.00067 0.00000
				CHANNELS 3 Zrotation Yrotation Xrotation
				JOINT LeftAnkle
				{
					OFFSET 2.51202 -6.90173 0.00000
					CHANNELS 3 Zrotation Yrotation Xrotation
					JOINT LeftToe
					{
						OFFSET 0.17547 -0.48209 1.64281
						CHANNELS 3 Zrotation Yrotation Xrotation
						End Site
						{
							OFFSET 0.00000 -0.00000 0.86587
						}
					}
				}
			}
		}
	}
	JOINT RHipJoint
	{
		OFFSET 0 0 0
		CHANNELS 3 Zrotation Yrotation Xrotation
		JOINT RightHip
		{
			OFFSET -1.95533 -1.74413 1.01654
			CHANNELS 3 Zrotation Yrotation Xrotation
			JOINT RightKnee
			{
				OFFSET -2.49465 -6.85400 0.00000
				CHANNELS 3 Zrotation Yrotation Xrotation
				JOINT RightAnkle
				{
					OFFSET -2.54783 -7.00010 0.00000
					CHANNELS 3 Zrotation Yrotation Xrotation
					JOINT RightToe
					{
						OFFSET -0.18513 -0.50864 1.69288
						CHANNELS 3 Zrotation Yrotation Xrotation
						End Site
						{
							OFFSET -0.00000 -0.00000 0.89242
						}
					}
				}
			}
		}
	}
	JOINT lowerback
	{
		OFFSET 0 0 0
		CHANNELS 3 Zrotation Yrotation Xrotation
		JOINT Chest
		{
			OFFSET 0.02173 2.16290 -0.15998
			CHANNELS 3 Zrotation Yrotation Xrotation
			JOINT Chest2
			{
				OFFSET 0.00940 2.17323 -0.00467
				CHANNELS 3 Zrotation Yrotation Xrotation
				JOINT lowerneck
				{
					OFFSET 0 0 0
					CHANNELS 3 Zrotation Yrotation Xrotation
					JOINT Neck
					{
						OFFSET 0.01475 1.85823 0.31113
						CHANNELS 3 Zrotation Yrotation Xrotation
						JOINT Head
						{
							OFFSET 0.01902 1.88783 -0.37187
							CHANNELS 3 Zrotation Yrotation Xrotation
							End Site
							{
								OFFSET 0.00489 1.93211 -0.16169
							}
						}
					}
				}
				JOINT LeftCollar
				{
					OFFSET 0 0 0
					CHANNELS 3 Zrotation Yrotation Xrotation
					JOINT LeftShoulder
					{
						OFFSET 3.34199 1.32384 -0.07862
CHANNELS 3 Zrotation Xrotation Yrotation
						JOINT LeftElbow
						{
OFFSET 0 -5.279500 0.000000
CHANNELS 3 Zrotation Xrotation Yrotation
							JOINT LeftWrist
							{
OFFSET 0 -3.535040 0.000000
CHANNELS 3 Zrotation Xrotation Yrotation
								JOINT lhand
								{
									OFFSET 0 0 0
CHANNELS 3 Zrotation Xrotation Yrotation
									JOINT LFingers
									{
OFFSET 0 -0.667950 0.000000
CHANNELS 3 Zrotation Xrotation Yrotation
										End Site
										{
OFFSET 0 -0.538520 0.000000
										}
									}
								}
								JOINT LThumb
								{
OFFSET 0 0.000000 0.000000
CHANNELS 3 Zrotation Xrotation Yrotation
									End Site
									{
OFFSET 0 -0.546740 0.546740
									}
								}
							}
						}
					}
				}
				JOINT RightCollar
				{
					OFFSET 0 0 0
					CHANNELS 3 Zrotation Yrotation Xrotation
					JOINT RightShoulder
					{
						OFFSET -3.16149 1.45719 -0.50507
CHANNELS 3 Zrotation Xrotation Yrotation
						JOINT RightElbow
						{
OFFSET 0 -5.250350 0.000000
CHANNELS 3 Zrotation Xrotation Yrotation
							JOINT RightWrist
							{
OFFSET 0 -3.588840 0.000000
CHANNELS 3 Zrotation Xrotation Yrotation
								JOINT rhand
								{
									OFFSET 0 0 0
CHANNELS 3 Zrotation Xrotation Yrotation
									JOINT RFingers
									{
OFFSET 0 -0.779240 0.000000
CHANNELS 3 Zrotation Xrotation Yrotation
										End Site
										{
OFFSET 0 -0.628240 0.000000
										}
									}
								}
								JOINT RThumb
								{
OFFSET 0 0.000000 0.000000
CHANNELS 3 Zrotation Xrotation Yrotation
									End Site
									{
OFFSET 0 -0.637830 0.637830
									}
								}
							}
						}
					}
				}
			}
		}
	}
}
MOTION
Frames: 16
Frame Time: .0083333
-0.0221 17.8433 -0.5862 -7.7145 67.5101 1.7663 0.0000 0.0000 0.0000 -13.1291 -20.2143 -5.8579 0.9449 6.1911 17.3399 0.0113 14.0952 -20.1532 2.0046 -8.8756 -25.4071 0.0000 0.0000 0.0000 20.7051 12.5721 -1.0136 0.0000 0.0000 0.0000 0.5799 -13.3507 -5.3379 -1.0130 6.4037 -17.9604 0.8118 0.2973 1.8874 0.6791 0.4438 -1.5494 0.2234 0.2153 -2.6467 5.0137 3.1618 -23.5365 -1.1596 3.9110 37.5338 -0.4726 2.3770 18.1315 0.0000 -0.0000 0.0000 1.5868 -10.1593 -54.9145 116.7938 -57.1055 82.9786 17.0021 -45.0154 -50.7055 0.0 0.0 0.0 -7.1250 0.0 0.0 -55.2286 76.8396 43.536 0.0000 -0.0000 0.0000 -10.1844 -3.6053 68.6148 -119.2353 -56.5103 -85.0219 -16.9993 -33.4941 1.0262 0.0 0.0 0.0 7.1250 0.0 -0.0 7.6107 31.0004 2.6243
-0.0153 17.8451 -0.5820 -7.6481 67.5653 1.8216 0.0000 0.0000 0.0000 -13.1712 -20.1849 -5.8225 0.9405 6.1769 17.2986 0.0140 14.0623 -20.1367 1.9963 -8.8584 -25.3533 0.0000 0.0000 0.0000 20.6719 12.5034 -0.9898 0.0000 0.0000 -0.0000 0.5775 -13.3279 -5.4723 -0.8945 6.0280 -16.8655 0.7903 0.2685 1.8588 0.6979 0.4050 -1.5632 0.2564 0.1966 -2.6452 5.0986 3.2697 -23.4464 -1.2444 4.0829 37.5034 -0.4900 2.4457 18.1048 0.0000 -0.0000 0.0000 1.6844 -10.1053 -55.2221 116.4439 -57.1854 82.6847 17.8608 -44.7157 -50.7341 0.0 0.0 0.0 -7.1250 0.0 0.0 -54.7818 77.1972 43.4921 0.0000 -0.0000 0.0000 -10.2369 -3.5107 68.7163 -118.9638 -56.5798 -84.7954 -17.5024 -34.4461 0.2676 0.0 0.0 0.0 7.1250 0.0 -0.0 7.1516 30.2196 2.5983
-0.0089 17.8476 -0.5762 -7.7443 67.6299 1.7063 0.0000 0.0000 0.0000 -13.1361 -20.1034 -5.8348 0.9447 6.1903 17.3376 0.0304 13.9296 -20.1362 2.0209 -8.9094 -25.5124 0.0000 0.0000 0.0000 20.7051 12.4171 -0.9394 0.0000 0.0000 -0.0000 0.5697 -13.2513 -5.7090 -0.6927 5.3206 -14.8251 0.8116 0.2565 1.8255 0.7368 0.3900 -1.5399 0.2852 0.1892 -2.6027 5.1535 3.3465 -23.4512 -1.3065 4.2034 37.4918 -0.5015 2.4919 18.1092 -0.0000 -0.0000 0.0000 1.7205 -10.0751 -55.533 116.0565 -57.2724 82.3589 18.9405 -44.186 -51.0942 0.0 0.0 0.0 -7.1250 0.0 0.0 -55.6035 77.792 44.7831 -0.0000 -0.0000 0.0000 -10.3031 -3.4156 68.7886 -118.7575 -56.632 -84.6231 -18.5158 -35.8574 -1.1425 0.0 0.0 0.0 7.1250 0.0 -0.0 6.2650 28.7519 2.4926
-0.0043 17.8455 -0.5727 -7.8783 67.6797 1.5641 0.0000 0.0000 0.0000 -13.0803 -20.0605 -5.9134 0.9625 6.2466 17.5016 0.0481 13.7930 -20.1461 2.1052 -9.0818 -26.0514 0.0000 0.0000 0.0000 20.7751 12.3563 -0.9057 0.0000 0.0000 -0.0000 0.5688 -13.2406 -5.6873 -0.7259 5.4439 -15.1791 0.8589 0.2394 1.8223 0.7917 0.3698 -1.5184 0.3159 0.1790 -2.5788 5.1564 3.4148 -23.5249 -1.3408 4.3218 37.5401 -0.4897 2.5338 18.1625 0.0000 0.0000 0.0000 1.6992 -10.023 -55.8191 115.6501 -57.3619 82.0169 20.4788 -43.3294 -50.8958 0.0 0.0 0.0 -7.1250 0.0 0.0 -53.7936 78.3382 43.7067 0.0000 0.0000 0.0000 -10.4101 -3.3184 68.8968 -118.5357 -56.6877 -84.4378 -19.718 -37.2967 -2.9308 0.0 0.0 0.0 7.1250 0.0 -0.0 5.2570 26.8581 2.324
-0.0070 17.8410 -0.5726 -8.3999 67.6914 1.1707 0.0000 0.0000 0.0000 -12.7882 -20.0416 -6.1787 0.9842 6.3147 17.7003 0.0593 13.6823 -20.1195 2.1638 -9.1992 -26.4204 0.0000 0.0000 0.0000 21.0084 12.3948 -1.0103 0.0000 -0.0000 0.0000 0.5710 -13.2531 -5.3831 -0.9958 6.3506 -17.8051 1.0636 0.2332 1.8402 0.8795 0.3715 -1.5587 0.2911 0.1771 -2.6299 5.2032 3.4848 -23.5751 -1.4161 4.4403 37.5675 -0.5052 2.5758 18.2013 -0.0000 0.0000 0.0000 1.7042 -9.9231 -56.1082 115.2192 -57.4548 81.6539 19.8556 -44.2775 -50.6534 0.0 0.0 0.0 -7.1250 0.0 0.0 -53.1360 77.9726 42.7892 -0.0000 0.0000 0.0000 -10.4799 -3.1899 69.0286 -118.3332 -56.738 -84.2686 -20.8644 -38.7149 -4.5767 0.0 0.0 0.0 7.1250 0.0 -0.0 4.3479 25.0826 2.1005
-0.0130 17.8386 -0.5736 -9.1388 67.6991 0.6258 0.0000 0.0000 0.0000 -12.3783 -20.0901 -6.4619 0.9985 6.3592 17.8303 0.0555 13.6738 -20.0665 2.1975 -9.2658 -26.6304 0.0000 0.0000 0.0000 21.3105 12.4642 -1.1874 0.0000 -0.0000 0.0000 0.5711 -13.2493 -5.1740 -1.1583 6.8329 -19.2213 1.3691 0.2448 1.8619 0.9752 0.4017 -1.6298 0.2167 0.1875 -2.7142 5.2558 3.5528 -23.5662 -1.4789 4.5485 37.5439 -0.5196 2.6167 18.1954 -0.0000 -0.0000 0.0000 1.7271 -9.7922 -56.4158 114.7167 -57.5609 81.23 14.5978 -48.6691 -52.5128 0.0 0.0 0.0 -7.1250 0.0 0.0 -63.7632 76.584 50.8443 -0.0000 -0.0000 0.0000 -10.5233 -3.0139 69.1749 -118.1251 -56.7892 -84.0945 -22.1398 -40.3719 -6.0565 0.0 0.0 0.0 7.1250 0.0 -0.0 3.3895 23.4476 1.7639
-0.0084 17.8382 -0.5731 -9.0105 67.7378 0.7291 0.0000 0.0000 0.0000 -12.4597 -20.1634 -6.3920 0.9974 6.3557 17.8201 0.0491 13.7382 -20.0819 2.1733 -9.2180 -26.4796 0.0000 0.0000 0.0000 21.2565 12.4162 -1.1729 0.0000 -0.0000 0.0000 0.5783 -13.3321 -5.2862 -1.1030 6.6733 -18.7509 1.3882 0.2485 1.8876 0.9620 0.4074 -1.6275 0.1921 0.1897 -2.7260 5.3103 3.6138 -23.5307 -1.5365 4.6422 37.4901 -0.5359 2.6527 18.1648 -0.0000 0.0000 0.0000 1.7379 -9.6321 -56.6942 114.0329 -57.701 80.6525 15.2502 -48.4175 -54.1041 0.0 0.0 0.0 -7.1250 0.0 0.0 -70.2641 77.2606 57.5554 -0.0000 0.0000 0.0000 -10.5522 -2.871 69.417 -117.7526 -56.8797 -83.7827 -23.9295 -42.4233 -7.7559 0.0 0.0 0.0 7.1250 0.0 -0.0 2.1048 21.507 1.1874
0.0041 17.8380 -0.5715 -8.1230 67.7549 1.4068 0.0000 0.0000 0.0000 -12.9552 -20.1773 -5.9958 0.9713 6.2744 17.5828 0.0416 13.8445 -20.1440 2.0870 -9.0450 -25.9363 0.0000 0.0000 0.0000 20.9025 12.3168 -0.9886 0.0000 -0.0000 0.0000 0.5786 -13.3358 -5.3338 -1.1325 6.7588 -19.0028 1.1501 0.2764 1.9398 0.8468 0.4328 -1.5627 0.2060 0.2055 -2.6891 5.3059 3.6199 -23.5169 -1.5092 4.6374 37.4281 -0.5243 2.6534 18.1247 -0.0000 -0.0000 0.0000 1.7477 -9.4722 -57.0162 113.0876 -57.8869 79.8526 12.6755 -50.8268 -55.5856 0.0 0.0 0.0 -7.1250 0.0 0.0 -77.0358 76.5111 63.1824 -0.0000 -0.0000 0.0000 -10.5836 -2.7247 69.869 -117.2350 -57.0028 -83.3489 -25.9023 -45.0162 -9.8412 0.0 0.0 0.0 7.1250 0.0 -0.0 0.7742 19.0652 0.4789
0.0163 17.8361 -0.5695 -7.1665 67.7334 2.1445 0.0000 0.0000 0.0000 -13.4855 -20.1592 -5.5232 0.9312 6.1472 17.2121 0.0160 14.0201 -20.1001 2.1059 -9.0833 -26.0563 0.0000 0.0000 0.0000 20.5231 12.2494 -0.7913 0.0000 0.0000 -0.0000 0.5747 -13.2904 -5.2503 -1.2243 7.0180 -19.7687 0.9084 0.3601 1.9989 0.7018 0.5317 -1.4868 0.1883 0.2576 -2.6443 5.2557 3.5596 -23.5801 -1.4281 4.5253 37.4100 -0.5020 2.6128 18.1201 0.0000 -0.0000 0.0000 1.8127 -9.293 -57.4446 112.1845 -58.0562 79.087 12.1749 -51.5471 -55.6638 0.0 0.0 0.0 -7.1250 0.0 0.0 -77.4123 76.3335 63.3496 0.0000 -0.0000 0.0000 -10.5967 -2.5235 69.9958 -116.7565 -57.1141 -82.9473 -27.4021 -46.1256 -11.01 0.0 0.0 0.0 7.1250 0.0 -0.0 -0.2090 17.6187 -0.1359
0.0294 17.8359 -0.5659 -6.2359 67.6634 2.8609 0.0000 0.0000 0.0000 -14.0037 -20.1917 -5.0624 0.9012 6.0499 16.9294 -0.0105 14.2258 -20.0921 2.1278 -9.1273 -26.1943 0.0000 0.0000 0.0000 20.1607 12.2226 -0.5695 0.0000 -0.0000 0.0000 0.5798 -13.3525 -5.4397 -1.1235 6.7329 -18.9264 0.6741 0.4681 2.0694 0.5538 0.6636 -1.4109 0.1618 0.3258 -2.6063 5.3038 3.4888 -23.7011 -1.5085 4.4160 37.3968 -0.5705 2.5626 18.1430 -0.0000 -0.0000 0.0000 1.9454 -9.1062 -57.8246 111.2982 -58.2147 78.3342 9.6967 -53.8557 -57.223 0.0 0.0 0.0 -7.1250 0.0 0.0 -83.8378 75.5286 68.7753 -0.0000 -0.0000 0.0000 -10.5758 -2.2822 69.93 -116.1932 -57.2418 -82.4739 -28.4225 -46.4149 -11.9767 0.0 0.0 0.0 7.1250 0.0 -0.0 -0.8433 16.4196 -0.5706
0.0341 17.8382 -0.5615 -6.1999 67.6032 2.8913 0.0000 0.0000 0.0000 -14.0199 -20.1272 -4.9566 0.8855 5.9985 16.7801 -0.0177 14.2581 -20.0567 2.0488 -8.9671 -25.6923 0.0000 0.0000 0.0000 20.1618 12.2709 -0.5217 0.0000 -0.0000 0.0000 0.5834 -13.3988 -5.6163 -1.0112 6.3980 -17.9438 0.6577 0.5359 2.1107 0.5717 0.7542 -1.3917 0.1852 0.3715 -2.6101 5.2962 3.4358 -23.7535 -1.6313 4.3690 37.2476 -0.6377 2.5198 18.0737 0.0000 0.0000 0.0000 2.0111 -8.9388 -57.9734 110.1511 -58.4087 77.3582 18.275 -47.623 -54.5095 0.0 0.0 0.0 -7.1250 0.0 0.0 -71.7540 78.5143 60.3027 0.0000 0.0000 0.0000 -10.6264 -2.1331 69.8551 -115.5400 -57.3858 -81.9242 -28.9121 -46.4153 -12.7716 0.0 0.0 0.0 7.1250 0.0 -0.0 -1.1103 15.4639 -0.7742
0.0271 17.8428 -0.5588 -7.1585 67.6514 2.1950 0.0000 0.0000 0.0000 -13.4599 -19.9359 -5.3364 0.8842 5.9942 16.7675 -0.0017 14.0096 -19.8859 1.9819 -8.8282 -25.2593 0.0000 0.0000 0.0000 20.5364 12.3265 -0.7525 0.0000 -0.0000 0.0000 0.5759 -13.3140 -5.5822 -0.9558 6.2255 -17.4401 0.9627 0.5450 2.0662 0.7245 0.7811 -1.4344 0.1701 0.3813 -2.6272 5.1825 3.4078 -23.7335 -1.6103 4.3458 37.0139 -0.6161 2.4916 17.9313 -0.0000 0.0000 0.0000 2.0938 -8.7497 -57.9944 108.9387 -58.6004 76.3243 15.7687 -50.3298 -56.3546 0.0 0.0 0.0 -7.1250 0.0 0.0 -80.4740 77.7073 67.8535 -0.0000 0.0000 0.0000 -10.6952 -2.0728 69.8419 -115.0047 -57.5004 -81.473 -29.3545 -46.3603 -13.1943 0.0 0.0 0.0 7.1250 0.0 -0.0 -1.3727 14.9278 -0.973
0.0238 17.8483 -0.5550 -7.7103 67.7115 1.7895 0.0000 0.0000 0.0000 -13.1346 -19.8483 -5.6334 0.9005 6.0476 16.9227 0.0237 13.7773 -19.8502 2.0107 -8.8883 -25.4465 0.0000 0.0000 0.0000 20.7370 12.3205 -0.8846 0.0000 -0.0000 0.0000 0.5648 -13.1963 -5.6860 -0.7955 5.6932 -15.8967 1.2096 0.5575 2.0722 0.7580 0.8074 -1.4500 0.0650 0.3904 -2.6438 5.1411 3.3961 -23.6878 -1.5507 4.3009 36.7760 -0.5944 2.4717 17.7821 -0.0000 0.0000 0.0000 2.3638 -8.5077 -58.0654 107.7784 -58.7714 75.333 14.834 -52.1661 -57.1931 0.0 0.0 0.0 -7.1250 0.0 0.0 -84.1506 77.3569 71.1156 -0.0000 0.0000 0.0000 -10.5761 -2.0218 69.7761 -114.4993 -57.6059 -81.0464 -29.7445 -46.2217 -13.6559 0.0 0.0 0.0 7.1250 0.0 -0.0 -1.5917 14.351 -1.1479
0.0266 17.8474 -0.5483 -7.7732 67.7285 1.7166 0.0000 0.0000 0.0000 -13.0988 -19.8517 -5.7039 0.9203 6.1122 17.1104 0.0374 13.7015 -19.9011 2.0686 -9.0074 -25.8186 0.0000 0.0000 0.0000 20.7865 12.2954 -0.8535 0.0000 0.0000 -0.0000 0.5692 -13.2509 -5.8035 -0.7197 5.4210 -15.1132 1.2812 0.5861 2.1439 0.7281 0.8484 -1.4468 -0.0083 0.4089 -2.6791 5.1399 3.3656 -23.5928 -1.5629 4.2436 36.5297 -0.6162 2.4429 17.6206 0.0000 -0.0000 0.0000 2.7087 -8.1308 -58.4465 106.1409 -58.9923 73.9311 15.6637 -53.0487 -56.2184 0.0 0.0 0.0 -7.1250 0.0 0.0 -79.8283 77.6655 67.1736 0.0000 -0.0000 0.0000 -10.3529 -1.9589 69.5895 -114.0084 -57.7059 -80.6317 -29.9576 -45.7943 -14.0226 0.0 0.0 0.0 7.1250 0.0 -0.0 -1.6976 13.9046 -1.2405
0.0287 17.8411 -0.5423 -7.8157 67.6961 1.6849 0.0000 0.0000 0.0000 -13.0616 -19.7526 -5.7851 0.9305 6.1450 17.2058 0.0381 13.6685 -19.8629 2.0760 -9.0225 -25.8658 0.0000 0.0000 0.0000 20.8491 12.3322 -0.8400 0.0000 0.0000 -0.0000 0.5812 -13.3761 -5.6600 -0.8824 5.9882 -16.7501 1.2767 0.6154 2.1771 0.7640 0.8892 -1.4579 0.0288 0.4296 -2.7096 5.0843 3.3353 -23.5469 -1.6221 4.2373 36.3884 -0.6369 2.4211 17.5317 -0.0000 -0.0000 0.0000 2.9239 -7.6975 -58.4641 104.3378 -59.2088 72.3839 13.2916 -55.2425 -57.2347 0.0 0.0 0.0 -7.1250 0.0 0.0 -84.0802 76.8052 70.4392 -0.0000 -0.0000 0.0000 -10.1512 -1.9115 69.3062 -113.5835 -57.7905 -80.2724 -30.7747 -45.5473 -14.3868 0.0 0.0 0.0 7.1250 0.0 -0.0 -2.2074 13.3658 -1.6386
0.0312 17.8392 -0.5410 -7.8311 67.6333 1.7384 0.0000 0.0000 0.0000 -13.0236 -19.5994 -5.9404 0.9370 6.1657 17.2661 0.0465 13.5802 -19.8377 2.0947 -9.0605 -25.9848 0.0000 0.0000 0.0000 20.8568 12.4224 -0.8976 0.0000 0.0000 -0.0000 0.5859 -13.4216 -5.4781 -1.0450 6.5009 -18.2449 1.2835 0.6494 2.1425 0.8191 0.9362 -1.4687 0.0797 0.4537 -2.7016 4.9667 3.3211 -23.6225 -1.6234 4.2587 36.3557 -0.6118 2.4105 17.5295 0.0000 0.0000 0.0000 3.0744 -7.1733 -58.5166 102.3495 -59.4158 70.674 11.0998 -57.3339 -57.4393 0.0 0.0 0.0 -7.1250 0.0 0.0 -84.7306 76.0244 70.2259 0.0000 0.0000 0.0000 -9.9652 -1.9576 68.9092 -113.1548 -57.8739 -79.9095 -31.2917 -45.2315 -14.6995 0.0 0.0 0.0 7.1250 0.0 -0.0 -2.5172 12.9259 -1.8922
